<svg xmlns="http://www.w3.org/2000/svg" width="26.5" height="26.227" viewBox="0 0 26.5 26.227"><defs><style>.a{fill:#fff;}.a,.b,.c,.d{stroke:#e6484b;stroke-width:1.5px;}.a,.b,.c{stroke-miterlimit:10;}.b,.c,.d{fill:none;}.c,.d{stroke-linecap:round;}.d{stroke-linejoin:round;}</style></defs><g transform="translate(0.75 0.75)"><path class="a" d="M290.1,419.78H273.317a2.242,2.242,0,0,1-2.235-2.234V402.063a2.242,2.242,0,0,1,2.235-2.234H290.1a2.242,2.242,0,0,1,2.236,2.234v15.482A2.242,2.242,0,0,1,290.1,419.78Z" transform="translate(-271.082 -397.659)"/><line class="b" x2="21.256" transform="translate(0.001 7.789)"/><line class="c" y2="4.187" transform="translate(4.589)"/><line class="c" y2="4.187" transform="translate(16.969)"/><line class="c" y2="4.187" transform="translate(10.629)"/><g transform="translate(15.708 15.434)"><circle class="a" cx="4.646" cy="4.646" r="4.646"/><path class="c" d="M286.551,411.185v2.969h2.208" transform="translate(-281.905 -409.508)"/></g><g transform="translate(3.578 11.796)"><line class="d" x1="6.969" transform="translate(1.314 2.437)"/><path class="d" d="M276.238,412.018l-2.437-2.437,2.437-2.437" transform="translate(-273.802 -407.145)"/></g></g></svg>