<svg xmlns="http://www.w3.org/2000/svg" width="26.5" height="26.227" viewBox="0 0 26.5 26.227"><defs><style>.a{fill:#fff;}.a,.b,.c,.d{stroke:#e6484b;stroke-width:1.5px;}.a,.b,.c{stroke-miterlimit:10;}.b,.c,.d{fill:none;}.c,.d{stroke-linecap:round;}.d{stroke-linejoin:round;}</style></defs><g transform="translate(0.75 0.75)"><path class="a" d="M90.865,419.78H74.08a2.242,2.242,0,0,1-2.236-2.234V402.063a2.242,2.242,0,0,1,2.236-2.234H90.865a2.241,2.241,0,0,1,2.236,2.234v15.483A2.241,2.241,0,0,1,90.865,419.78Z" transform="translate(-71.844 -397.659)"/><line class="b" x2="21.257" transform="translate(0 7.789)"/><line class="c" y2="4.187" transform="translate(4.589)"/><line class="c" y2="4.187" transform="translate(16.968)"/><line class="c" y2="4.187" transform="translate(10.628)"/><g transform="translate(15.707 15.435)"><circle class="a" cx="4.646" cy="4.646" r="4.646"/><path class="c" d="M87.313,411.185v2.969h2.208" transform="translate(-82.667 -409.508)"/></g><g transform="translate(3.578 11.797)"><line class="d" x2="6.969" transform="translate(0 2.437)"/><path class="d" d="M79.007,407.145l2.437,2.437-2.437,2.437" transform="translate(-73.16 -407.145)"/></g></g></svg>